<svg width="131" height="48" viewBox="0 0 131 48" fill="none" xmlns="http://www.w3.org/2000/svg">
<g clip-path="url(#clip0_170_592)">
<path fill-rule="evenodd" clip-rule="evenodd" d="M3.44147 -2.8435e-06H0.408367L0.00012207 0.40668V32.0597L0.382148 32.4402H11.6C16.3959 32.4402 20.9359 31.2201 24.4817 27.869C27.8316 24.7031 29.3187 20.732 29.3187 16.1709C29.3187 11.6257 27.8696 7.64053 24.5064 4.49735C20.9522 1.17545 16.376 -0.00012207 11.6 -0.00012207H8.10922L7.70098 0.406561L7.69942 26.2518H8.06696L22.1557 16.4831V15.9568L13.7804 10.1497L13.4755 10.2979V14.3931L13.6381 14.7245L15.5958 16.0818V16.3582L11.836 18.965L11.5508 18.8167V3.59612L11.7086 3.44088L11.8195 3.44219C15.4498 3.485 18.9356 4.4071 21.6192 6.95486C24.2392 9.4424 25.3209 12.6137 25.3209 16.1709C25.3209 19.7454 24.2023 22.9005 21.5946 25.4115C18.849 28.0553 15.2913 28.9995 11.5508 28.9995H4.00547L3.84983 28.8447V28.7351V0.40668L3.44159 -2.8435e-06H3.44147Z" fill="#04C2C2"/>
<path d="M82.469 7.6087H86.7797L77.2295 32.4402H75.9289L68.6085 15.1211L61.288 32.4402H59.9501L50.4001 7.6087H54.7478L60.8791 24.1137L67.9024 7.20166H69.2772L76.3377 24.1137L82.469 7.6087ZM49.5084 24.2247H35.9079C36.1556 25.7049 36.8183 26.8707 37.8958 27.7219C38.9734 28.5731 40.2926 28.9986 41.8533 28.9986C43.7857 28.9986 45.557 28.2831 47.1673 26.8521L49.0252 29.5166C46.969 31.4657 44.5413 32.4402 41.7419 32.4402C38.9673 32.4402 36.6385 31.5336 34.7558 29.7201C32.8731 27.9068 31.9317 25.6556 31.9317 22.9664C31.8822 20.3513 32.7988 18.1001 34.6816 16.2127C36.5643 14.3253 38.7939 13.4063 41.3703 13.4557C43.7734 13.4557 45.7799 14.2513 47.3902 15.8426C49.0004 17.4339 49.8055 19.4137 49.8055 21.7821C49.8055 22.4976 49.7064 23.3118 49.5083 24.2246L49.5084 24.2247ZM35.9822 21.1902H45.9039C45.8791 19.8333 45.4208 18.7539 44.529 17.952C43.6371 17.1503 42.5347 16.7492 41.2217 16.7492C39.9335 16.7492 38.8125 17.1502 37.8588 17.952C36.905 18.7538 36.2795 19.8333 35.9822 21.1902ZM89.9011 32.0331V13.8629H93.8029V32.0331H89.9011ZM96.7014 28.9247L98.931 26.4822C100.591 28.2092 102.3 29.0726 104.059 29.0726C104.926 29.0726 105.632 28.8938 106.177 28.5361C106.722 28.1783 106.995 27.6787 106.995 27.0373C106.995 26.5438 106.809 26.143 106.437 25.8344C106.066 25.5261 105.397 25.1745 104.431 24.7799L102.573 24.0026C100.913 23.3119 99.7053 22.5656 98.9499 21.7637C98.1941 20.962 97.8164 19.9443 97.8164 18.7106C97.8164 17.107 98.4172 15.8303 99.6187 14.8805C100.82 13.9306 102.362 13.4557 104.245 13.4557C106.871 13.4557 108.977 14.3932 110.562 16.2681L108.444 18.6735C107.255 17.44 105.83 16.8233 104.171 16.8233C102.511 16.8233 101.681 17.4029 101.681 18.5625C101.681 19.0065 101.854 19.3828 102.201 19.6913C102.548 19.9996 103.18 20.3388 104.096 20.7089L105.843 21.4121C107.602 22.1522 108.871 22.9355 109.652 23.762C110.432 24.5884 110.822 25.6308 110.822 26.889C110.822 28.6407 110.178 30.01 108.89 30.9967C107.602 31.9589 105.991 32.44 104.059 32.44C100.962 32.44 98.5098 31.2682 96.7014 28.9244V28.9247ZM130.703 24.2247H117.102C117.35 25.7049 118.013 26.8707 119.09 27.7219C120.168 28.5731 121.487 28.9986 123.048 28.9986C124.98 28.9986 126.751 28.2831 128.361 26.8521L130.22 29.5166C128.163 31.4657 125.736 32.4402 122.936 32.4402C120.161 32.4402 117.833 31.5336 115.95 29.7201C114.067 27.9068 113.126 25.6556 113.126 22.9664C113.076 20.3513 113.993 18.1001 115.876 16.2127C117.759 14.3253 119.988 13.4063 122.565 13.4557C124.968 13.4557 126.974 14.2513 128.585 15.8426C130.195 17.4339 131 19.4137 131 21.7821C131 22.4976 130.901 23.3118 130.702 24.2246L130.703 24.2247ZM117.177 21.1902H127.098C127.073 19.8333 126.615 18.7539 125.723 17.952C124.831 17.1503 123.729 16.7492 122.416 16.7492C121.128 16.7492 120.007 17.1502 119.053 17.952C118.099 18.7538 117.474 19.8333 117.177 21.1902Z" fill="#262626"/>
<path fill-rule="evenodd" clip-rule="evenodd" d="M94.403 9.77696L92.1635 8.48931L89.9241 7.20166V9.77696V12.3523L92.1635 11.0646L94.403 9.77696Z" fill="#04C2C2"/>
<path d="M7.2628 41.0401C7.99352 41.0401 8.56554 41.2504 8.97888 41.6712C9.39959 42.0919 9.60995 42.7119 9.60995 43.5312V46.908H8.82388V43.6087C8.82388 43.0034 8.67626 42.5421 8.38102 42.2247C8.09316 41.9074 7.68352 41.7487 7.15209 41.7487C6.54685 41.7487 6.07077 41.9369 5.72387 42.3133C5.37696 42.6824 5.20351 43.1953 5.20351 43.8522V46.908H4.41744V43.6087C4.41744 43.0034 4.26982 42.5421 3.97458 42.2247C3.68672 41.9074 3.27339 41.7487 2.73458 41.7487C2.13672 41.7487 1.66065 41.9369 1.30636 42.3133C0.959456 42.6824 0.786003 43.1953 0.786003 43.8522V46.908H-6.98129e-05V41.0844H0.752789V42.1472C0.959456 41.7929 1.24731 41.5199 1.61636 41.3279C1.98541 41.136 2.40982 41.0401 2.88958 41.0401C3.37672 41.0401 3.79744 41.1434 4.15172 41.3501C4.51339 41.5568 4.7828 41.8631 4.95994 42.269C5.17399 41.8852 5.4803 41.5863 5.87887 41.3722C6.28482 41.1508 6.74613 41.0401 7.2628 41.0401ZM15.375 43.8965C16.1647 44.081 16.5596 44.5571 16.5596 45.3247C16.5596 45.834 16.3714 46.2252 15.995 46.4983C15.6185 46.7714 15.0576 46.908 14.3121 46.908H11.666V41.0844H14.2346C14.8989 41.0844 15.4193 41.2135 15.7957 41.4719C16.1721 41.7302 16.3603 42.0993 16.3603 42.579C16.3603 42.8964 16.2718 43.1695 16.0946 43.3983C15.9249 43.6197 15.685 43.7858 15.375 43.8965ZM12.43 43.6751H14.1793C14.6295 43.6751 14.9727 43.5902 15.2089 43.4205C15.4525 43.2507 15.5743 43.0034 15.5743 42.6787C15.5743 42.3539 15.4525 42.1103 15.2089 41.9479C14.9727 41.7856 14.6295 41.7044 14.1793 41.7044H12.43V43.6751ZM14.2789 46.288C14.7808 46.288 15.1572 46.2068 15.4082 46.0444C15.6591 45.882 15.7846 45.6274 15.7846 45.2805C15.7846 44.9336 15.6702 44.6789 15.4414 44.5165C15.2126 44.3468 14.8509 44.2619 14.3564 44.2619H12.43V46.288H14.2789ZM18.4019 41.0844H19.188V46.908H18.4019V41.0844ZM18.8005 39.8112C18.6381 39.8112 18.5015 39.7558 18.3908 39.6451C18.2801 39.5344 18.2247 39.4015 18.2247 39.2465C18.2247 39.0989 18.2801 38.9697 18.3908 38.859C18.5015 38.7483 18.6381 38.6929 18.8005 38.6929C18.9628 38.6929 19.0994 38.7483 19.2101 38.859C19.3208 38.9623 19.3762 39.0878 19.3762 39.2354C19.3762 39.3978 19.3208 39.5344 19.2101 39.6451C19.0994 39.7558 18.9628 39.8112 18.8005 39.8112ZM26.5553 41.0844V46.908H25.8025V45.8451C25.5958 46.1994 25.3116 46.4762 24.95 46.6755C24.5883 46.8674 24.175 46.9633 23.71 46.9633C22.9423 46.9633 22.3371 46.753 21.8942 46.3322C21.4588 45.9041 21.241 45.2805 21.241 44.4612V41.0844H22.0271V44.3837C22.0271 44.9963 22.1784 45.4613 22.481 45.7787C22.7836 46.0961 23.2191 46.2547 23.7875 46.2547C24.4001 46.2547 24.8835 46.0702 25.2378 45.7012C25.5921 45.3247 25.7692 44.8044 25.7692 44.1401V41.0844H26.5553ZM23.8982 40.254C23.3963 40.254 22.9977 40.1285 22.7025 39.8776C22.4072 39.6266 22.2559 39.2723 22.2485 38.8147H22.8132C22.8206 39.1026 22.9239 39.3351 23.1232 39.5122C23.3225 39.682 23.5808 39.7669 23.8982 39.7669C24.2156 39.7669 24.4739 39.682 24.6732 39.5122C24.8798 39.3351 24.9869 39.1026 24.9942 38.8147H25.5589C25.5515 39.2723 25.3965 39.6266 25.0939 39.8776C24.7986 40.1285 24.4001 40.254 23.8982 40.254ZM38.1998 41.0844V46.908H37.4802V42.3022L35.1219 46.1994H34.7677L32.4094 42.2912V46.908H31.6898V41.0844H32.4869L34.9559 45.2805L37.4691 41.0844H38.1998ZM45.7288 41.0844V46.908H44.976V45.7565C44.7398 46.1477 44.4261 46.4466 44.0349 46.6533C43.6511 46.86 43.2156 46.9633 42.7285 46.9633C42.1823 46.9633 41.6877 46.8378 41.2449 46.5869C40.802 46.3359 40.4551 45.9853 40.2042 45.5351C39.9532 45.0849 39.8277 44.5719 39.8277 43.9962C39.8277 43.4205 39.9532 42.9075 40.2042 42.4572C40.4551 42.007 40.802 41.6601 41.2449 41.4165C41.6877 41.1656 42.1823 41.0401 42.7285 41.0401C43.2008 41.0401 43.6252 41.1397 44.0017 41.339C44.3855 41.5309 44.6992 41.8151 44.9427 42.1915V41.0844H45.7288ZM42.7949 46.2658C43.2008 46.2658 43.5662 46.1736 43.891 45.989C44.2231 45.7971 44.4814 45.5277 44.666 45.1808C44.8579 44.8339 44.9538 44.439 44.9538 43.9962C44.9538 43.5533 44.8579 43.1584 44.666 42.8115C44.4814 42.4646 44.2231 42.1989 43.891 42.0144C43.5662 41.8225 43.2008 41.7265 42.7949 41.7265C42.3816 41.7265 42.0088 41.8225 41.6767 42.0144C41.3519 42.1989 41.0936 42.4646 40.9017 42.8115C40.7171 43.1584 40.6249 43.5533 40.6249 43.9962C40.6249 44.439 40.7171 44.8339 40.9017 45.1808C41.0936 45.5277 41.3519 45.7971 41.6767 45.989C42.0088 46.1736 42.3816 46.2658 42.7949 46.2658ZM52.0587 41.7819H48.7262V46.908H47.9402V41.0844H52.0587V41.7819ZM58.2166 41.0844V46.908H57.4638V45.7565C57.2276 46.1477 56.9139 46.4466 56.5227 46.6533C56.1389 46.86 55.7034 46.9633 55.2163 46.9633C54.6701 46.9633 54.1756 46.8378 53.7327 46.5869C53.2898 46.3359 52.9429 45.9853 52.692 45.5351C52.441 45.0849 52.3155 44.5719 52.3155 43.9962C52.3155 43.4205 52.441 42.9075 52.692 42.4572C52.9429 42.007 53.2898 41.6601 53.7327 41.4165C54.1756 41.1656 54.6701 41.0401 55.2163 41.0401C55.6887 41.0401 56.1131 41.1397 56.4895 41.339C56.8733 41.5309 57.187 41.8151 57.4306 42.1915V41.0844H58.2166ZM55.2827 46.2658C55.6887 46.2658 56.054 46.1736 56.3788 45.989C56.7109 45.7971 56.9692 45.5277 57.1538 45.1808C57.3457 44.8339 57.4416 44.439 57.4416 43.9962C57.4416 43.5533 57.3457 43.1584 57.1538 42.8115C56.9692 42.4646 56.7109 42.1989 56.3788 42.0144C56.054 41.8225 55.6887 41.7265 55.2827 41.7265C54.8694 41.7265 54.4966 41.8225 54.1645 42.0144C53.8397 42.1989 53.5814 42.4646 53.3895 42.8115C53.205 43.1584 53.1127 43.5533 53.1127 43.9962C53.1127 44.439 53.205 44.8339 53.3895 45.1808C53.5814 45.5277 53.8397 45.7971 54.1645 45.989C54.4966 46.1736 54.8694 46.2658 55.2827 46.2658ZM63.1433 43.8744C63.5567 43.9703 63.8741 44.1364 64.0955 44.3726C64.3243 44.6088 64.4387 44.8966 64.4387 45.2362C64.4387 45.5757 64.3206 45.8783 64.0844 46.144C63.8556 46.4097 63.5419 46.6164 63.1433 46.764C62.7448 46.9043 62.3056 46.9744 61.8258 46.9744C61.4051 46.9744 60.9918 46.9153 60.5858 46.7972C60.1799 46.6718 59.8256 46.4909 59.523 46.2547L59.7887 45.668C60.0544 45.8672 60.3644 46.0222 60.7187 46.133C61.073 46.2437 61.431 46.299 61.7926 46.299C62.3314 46.299 62.7706 46.1994 63.1101 46.0001C63.457 45.7934 63.6305 45.5166 63.6305 45.1697C63.6305 44.8597 63.4902 44.6199 63.2098 44.4501C62.9293 44.273 62.5455 44.1844 62.0583 44.1844H61.0619V43.6087H62.0141C62.4495 43.6087 62.8001 43.5275 63.0658 43.3651C63.3316 43.1953 63.4644 42.9702 63.4644 42.6897C63.4644 42.3797 63.3131 42.1362 63.0105 41.959C62.7152 41.7819 62.3277 41.6933 61.848 41.6933C61.2206 41.6933 60.6006 41.852 59.988 42.1694L59.7665 41.5604C60.4604 41.1988 61.18 41.0179 61.9255 41.0179C62.3683 41.0179 62.7669 41.0844 63.1212 41.2172C63.4829 41.3427 63.7633 41.5235 63.9626 41.7597C64.1693 41.9959 64.2726 42.269 64.2726 42.579C64.2726 42.8743 64.1693 43.1363 63.9626 43.3651C63.7633 43.5939 63.4902 43.7637 63.1433 43.8744ZM71.3493 41.0844V46.908H70.5964V45.8451C70.3897 46.1994 70.1056 46.4762 69.7439 46.6755C69.3822 46.8674 68.9689 46.9633 68.5039 46.9633C67.7363 46.9633 67.131 46.753 66.6882 46.3322C66.2527 45.9041 66.035 45.2805 66.035 44.4612V41.0844H66.821V44.3837C66.821 44.9963 66.9724 45.4613 67.275 45.7787C67.5776 46.0961 68.0131 46.2547 68.5814 46.2547C69.194 46.2547 69.6775 46.0702 70.0318 45.7012C70.3861 45.3247 70.5632 44.8044 70.5632 44.1401V41.0844H71.3493ZM73.5861 41.0844H74.3722V43.664H78.0369V41.0844H78.8229V46.908H78.0369V44.3394H74.3722V46.908H73.5861V41.0844ZM91.2177 41.0401C91.9484 41.0401 92.5204 41.2504 92.9338 41.6712C93.3545 42.0919 93.5648 42.7119 93.5648 43.5312V46.908H92.7788V43.6087C92.7788 43.0034 92.6311 42.5421 92.3359 42.2247C92.048 41.9074 91.6384 41.7487 91.107 41.7487C90.5017 41.7487 90.0257 41.9369 89.6787 42.3133C89.3318 42.6824 89.1584 43.1953 89.1584 43.8522V46.908H88.3723V43.6087C88.3723 43.0034 88.2247 42.5421 87.9295 42.2247C87.6416 41.9074 87.2283 41.7487 86.6895 41.7487C86.0916 41.7487 85.6155 41.9369 85.2612 42.3133C84.9143 42.6824 84.7409 43.1953 84.7409 43.8522V46.908H83.9548V41.0844H84.7077V42.1472C84.9143 41.7929 85.2022 41.5199 85.5712 41.3279C85.9403 41.136 86.3647 41.0401 86.8445 41.0401C87.3316 41.0401 87.7523 41.1434 88.1066 41.3501C88.4683 41.5568 88.7377 41.8631 88.9148 42.269C89.1289 41.8852 89.4352 41.5863 89.8337 41.3722C90.2397 41.1508 90.701 41.0401 91.2177 41.0401ZM98.0899 46.2658C98.4515 46.2658 98.7837 46.2031 99.0863 46.0776C99.3963 45.9447 99.6583 45.7528 99.8724 45.5019L100.315 46.0112C100.057 46.3212 99.7358 46.5574 99.352 46.7197C98.9682 46.8821 98.5438 46.9633 98.0788 46.9633C97.4809 46.9633 96.9495 46.8378 96.4845 46.5869C96.0195 46.3286 95.6578 45.9743 95.3995 45.524C95.1412 45.0738 95.012 44.5645 95.012 43.9962C95.012 43.4278 95.1338 42.9185 95.3773 42.4683C95.6283 42.0181 95.9715 41.6675 96.407 41.4165C96.8425 41.1656 97.337 41.0401 97.8906 41.0401C98.4072 41.0401 98.8722 41.1582 99.2856 41.3944C99.7063 41.6306 100.038 41.959 100.282 42.3797C100.533 42.8005 100.666 43.2802 100.681 43.819L95.8977 44.749C96.0453 45.2214 96.311 45.5941 96.6948 45.8672C97.086 46.133 97.551 46.2658 98.0899 46.2658ZM97.8906 41.7154C97.4846 41.7154 97.1193 41.8114 96.7945 42.0033C96.4771 42.1878 96.2262 42.4499 96.0416 42.7894C95.8645 43.1215 95.7759 43.5053 95.7759 43.9408C95.7759 44.0515 95.7796 44.1327 95.787 44.1844L99.8945 43.3872C99.8059 42.9001 99.5808 42.5015 99.2191 42.1915C98.8575 41.8741 98.4146 41.7154 97.8906 41.7154ZM105.783 46.908L103.934 44.4722L102.074 46.908H101.188L103.491 43.9187L101.299 41.0844H102.185L103.934 43.3651L105.683 41.0844H106.547L104.355 43.9187L106.68 46.908H105.783ZM107.968 41.0844H108.754V43.664H112.419V41.0844H113.205V46.908H112.419V44.3394H108.754V46.908H107.968V41.0844ZM115.439 41.0844H116.225V46.908H115.439V41.0844ZM115.838 39.8112C115.675 39.8112 115.539 39.7558 115.428 39.6451C115.317 39.5344 115.262 39.4015 115.262 39.2465C115.262 39.0989 115.317 38.9697 115.428 38.859C115.539 38.7483 115.675 38.6929 115.838 38.6929C116 38.6929 116.137 38.7483 116.247 38.859C116.358 38.9623 116.414 39.0878 116.414 39.2354C116.414 39.3978 116.358 39.5344 116.247 39.6451C116.137 39.7558 116 39.8112 115.838 39.8112ZM120.581 44.3172H119.253V46.908H118.467V41.0844H119.253V43.6419H120.592L122.641 41.0844H123.493L121.201 43.9076L123.659 46.908H122.729L120.581 44.3172ZM129.918 41.0844V46.908H129.165V45.8451C128.958 46.1994 128.674 46.4762 128.312 46.6755C127.951 46.8674 127.537 46.9633 127.072 46.9633C126.305 46.9633 125.699 46.753 125.257 46.3322C124.821 45.9041 124.603 45.2805 124.603 44.4612V41.0844H125.389V44.3837C125.389 44.9963 125.541 45.4613 125.843 45.7787C126.146 46.0961 126.581 46.2547 127.15 46.2547C127.762 46.2547 128.246 46.0702 128.6 45.7012C128.954 45.3247 129.132 44.8044 129.132 44.1401V41.0844H129.918Z" fill="#262626"/>
</g>
<defs>
<clipPath id="clip0_170_592">
<rect width="131" height="48" fill="white"/>
</clipPath>
</defs>
</svg>
