<svg width="193" height="72" viewBox="0 0 193 72" fill="none" xmlns="http://www.w3.org/2000/svg">
<g clip-path="url(#clip0_170_1126)">
<path fill-rule="evenodd" clip-rule="evenodd" d="M5.0702 5.67699e-05H0.601582L0.00012207 0.610081V48.0897L0.562954 48.6603H17.09C24.1557 48.6603 30.8444 46.8303 36.0685 41.8036C41.0038 37.0547 43.1946 31.098 43.1946 24.2563C43.1946 17.4386 41.0597 11.4609 36.1048 6.74609C30.8684 1.76324 24.1264 -0.00012207 17.09 -0.00012207H11.9471L11.3457 0.609902L11.3434 39.3778H11.8849L32.6416 24.7247V23.9353L20.3023 15.2245L19.8532 15.4468V21.5896L20.0928 22.0868L22.9769 24.1227V24.5373L17.4377 28.4476L17.0175 28.2252V5.39424L17.25 5.16139L17.4133 5.16335C22.7619 5.22756 27.8974 6.61071 31.8512 10.4323C35.7111 14.1637 37.3047 18.9206 37.3047 24.2563C37.3047 29.6181 35.6568 34.3508 31.8149 38.1173C27.7699 42.083 22.5284 43.4994 17.0175 43.4994H5.90113L5.67183 43.2671V43.1027V0.610081L5.07037 5.67699e-05H5.0702Z" fill="#04C2C2"/>
<path d="M121.5 11.4131H127.851L113.781 48.6603H111.865L101.08 22.6817L90.2945 48.6603H88.3234L74.2535 11.4131H80.659L89.6921 36.1707L100.039 10.8026H102.065L112.467 36.1707L121.5 11.4131ZM72.9398 36.3372H52.9024C53.2673 38.5575 54.2438 40.3062 55.8312 41.5829C57.4188 42.8597 59.3624 43.4979 61.6617 43.4979C64.5086 43.4979 67.1184 42.4247 69.4907 40.2783L72.228 44.275C69.1986 47.1987 65.6219 48.6603 61.4976 48.6603C57.4098 48.6603 53.9789 47.3004 51.2051 44.5803C48.4313 41.8603 47.0444 38.4834 47.0444 34.4497C46.9714 30.527 48.322 27.1502 51.0957 24.3191C53.8695 21.4881 57.1544 20.1096 60.9501 20.1836C64.4906 20.1836 67.4468 21.377 69.8191 23.764C72.1914 26.151 73.3776 29.1206 73.3776 32.6733C73.3776 33.7465 73.2316 34.9678 72.9396 36.337L72.9398 36.3372ZM53.0119 31.7853H67.6293C67.5928 29.75 66.9176 28.1309 65.6038 26.928C64.2897 25.7255 62.6656 25.1239 60.7313 25.1239C58.8334 25.1239 57.1818 25.7253 55.7767 26.928C54.3715 28.1307 53.4499 29.75 53.0119 31.7853ZM132.45 48.0498V20.7944H138.198V48.0498H132.45ZM142.469 43.3871L145.753 39.7233C148.199 42.3138 150.717 43.609 153.308 43.609C154.586 43.609 155.626 43.3407 156.429 42.8042C157.232 42.2675 157.634 41.5182 157.634 40.556C157.634 39.8158 157.36 39.2145 156.812 38.7517C156.265 38.2892 155.279 37.7618 153.856 37.1699L151.119 36.004C148.673 34.968 146.894 33.8484 145.781 32.6456C144.668 31.443 144.111 29.9165 144.111 28.066C144.111 25.6606 144.996 23.7456 146.766 22.3208C148.537 20.8959 150.809 20.1836 153.582 20.1836C157.451 20.1836 160.553 21.5898 162.889 24.4023L159.769 28.0104C158.017 26.1601 155.918 25.235 153.473 25.235C151.027 25.235 149.805 26.1045 149.805 27.8439C149.805 28.5099 150.06 29.0743 150.571 29.537C151.082 29.9994 152.013 30.5082 153.363 31.0634L155.936 32.1182C158.528 33.2284 160.398 34.4034 161.548 35.6431C162.698 36.8826 163.272 38.4462 163.272 40.3335C163.272 42.9611 162.323 45.015 160.425 46.4951C158.528 47.9384 156.155 48.66 153.308 48.66C148.746 48.66 145.133 46.9023 142.469 43.3867V43.3871ZM192.562 36.3372H172.524C172.89 38.5575 173.866 40.3062 175.453 41.5829C177.041 42.8597 178.985 43.4979 181.284 43.4979C184.131 43.4979 186.74 42.4247 189.113 40.2783L191.85 44.275C188.821 47.1987 185.244 48.6603 181.12 48.6603C177.032 48.6603 173.601 47.3004 170.827 44.5803C168.053 41.8603 166.667 38.4834 166.667 34.4497C166.593 30.527 167.944 27.1502 170.718 24.3191C173.492 21.4881 176.777 20.1096 180.572 20.1836C184.113 20.1836 187.069 21.377 189.441 23.764C191.814 26.151 193 29.1206 193 32.6733C193 33.7465 192.854 34.9678 192.562 36.337L192.562 36.3372ZM172.634 31.7853H187.251C187.215 29.75 186.54 28.1309 185.226 26.928C183.912 25.7255 182.288 25.1239 180.353 25.1239C178.455 25.1239 176.804 25.7253 175.399 26.928C173.993 28.1307 173.072 29.75 172.634 31.7853Z" fill="white"/>
<path fill-rule="evenodd" clip-rule="evenodd" d="M139.082 14.6655L135.783 12.734L132.484 10.8026V14.6655V18.5284L135.783 16.597L139.082 14.6655Z" fill="#04C2C2"/>
<path d="M10.7002 62.717C11.7768 62.717 12.6196 63.0269 13.2285 63.6467C13.8483 64.2666 14.1583 65.18 14.1583 66.387V71.362H13.0002V66.5012C13.0002 65.6095 12.7827 64.9299 12.3477 64.4623C11.9236 63.9947 11.3201 63.7609 10.5371 63.7609C9.64545 63.7609 8.94406 64.0382 8.43297 64.5928C7.92188 65.1365 7.66633 65.8923 7.66633 66.8601V71.362H6.50822V66.5012C6.50822 65.6095 6.29074 64.9299 5.85577 64.4623C5.43167 63.9947 4.82272 63.7609 4.0289 63.7609C3.14808 63.7609 2.44669 64.0382 1.92473 64.5928C1.41364 65.1365 1.15809 65.8923 1.15809 66.8601V71.362H-1.24243e-05V62.7822H1.10916V64.3481C1.41364 63.8261 1.83774 63.4238 2.38145 63.1411C2.92516 62.8583 3.55043 62.717 4.25726 62.717C4.97496 62.717 5.59479 62.8692 6.11675 63.1737C6.64959 63.4782 7.0465 63.9295 7.30748 64.5275C7.62284 63.9621 8.07412 63.5217 8.66133 63.2063C9.25941 62.8801 9.93905 62.717 10.7002 62.717ZM22.6518 66.9253C23.8153 67.1972 24.3971 67.8986 24.3971 69.0295C24.3971 69.7798 24.1198 70.3561 23.5652 70.7585C23.0106 71.1608 22.1842 71.362 21.0859 71.362H17.1875V62.7822H20.9717C21.9504 62.7822 22.717 62.9725 23.2716 63.3531C23.8262 63.7337 24.1035 64.2774 24.1035 64.9843C24.1035 65.4518 23.973 65.8542 23.712 66.1913C23.4619 66.5175 23.1085 66.7622 22.6518 66.9253ZM18.3129 66.5991H20.8901C21.5535 66.5991 22.0591 66.474 22.4071 66.2239C22.7659 65.9738 22.9454 65.6095 22.9454 65.1311C22.9454 64.6526 22.7659 64.2937 22.4071 64.0545C22.0591 63.8153 21.5535 63.6957 20.8901 63.6957H18.3129V66.5991ZM21.0369 70.4486C21.7764 70.4486 22.331 70.3289 22.7007 70.0897C23.0704 69.8505 23.2553 69.4753 23.2553 68.9642C23.2553 68.4531 23.0867 68.078 22.7496 67.8387C22.4125 67.5886 21.8797 67.4636 21.1511 67.4636H18.3129V70.4486H21.0369ZM27.1113 62.7822H28.2694V71.362H27.1113V62.7822ZM27.6985 60.9064C27.4592 60.9064 27.2581 60.8249 27.095 60.6617C26.9318 60.4986 26.8503 60.3029 26.8503 60.0745C26.8503 59.857 26.9318 59.6667 27.095 59.5036C27.2581 59.3405 27.4592 59.259 27.6985 59.259C27.9377 59.259 28.1389 59.3405 28.302 59.5036C28.4651 59.6559 28.5467 59.8407 28.5467 60.0582C28.5467 60.2975 28.4651 60.4986 28.302 60.6617C28.1389 60.8249 27.9377 60.9064 27.6985 60.9064ZM39.1236 62.7822V71.362H38.0144V69.7961C37.7099 70.3181 37.2913 70.7259 36.7584 71.0195C36.2256 71.3022 35.6166 71.4436 34.9316 71.4436C33.8006 71.4436 32.9089 71.1336 32.2565 70.5138C31.6149 69.8831 31.2941 68.9642 31.2941 67.7572V62.7822H32.4522V67.643C32.4522 68.5456 32.6751 69.2306 33.121 69.6982C33.5668 70.1658 34.2084 70.3996 35.0457 70.3996C35.9483 70.3996 36.6606 70.1278 37.1825 69.5841C37.7045 69.0295 37.9655 68.2628 37.9655 67.2842V62.7822H39.1236ZM35.2088 61.5589C34.4694 61.5589 33.8822 61.374 33.4472 61.0043C33.0122 60.6346 32.7893 60.1126 32.7785 59.4384H33.6103C33.6212 59.8625 33.7734 60.205 34.067 60.466C34.3607 60.7161 34.7413 60.8412 35.2088 60.8412C35.6764 60.8412 36.057 60.7161 36.3506 60.466C36.6551 60.205 36.8128 59.8625 36.8237 59.4384H37.6556C37.6447 60.1126 37.4163 60.6346 36.9705 61.0043C36.5355 61.374 35.9483 61.5589 35.2088 61.5589ZM56.2792 62.7822V71.362H55.2189V64.5765L51.7446 70.3181H51.2227L47.7483 64.5602V71.362H46.6881V62.7822H47.8625L51.5 68.9642L55.2026 62.7822H56.2792ZM67.3716 62.7822V71.362H66.2624V69.6656C65.9144 70.242 65.4523 70.6824 64.8759 70.9868C64.3105 71.2913 63.6689 71.4436 62.9512 71.4436C62.1465 71.4436 61.4179 71.2587 60.7655 70.889C60.113 70.5192 59.6019 70.0027 59.2322 69.3394C58.8625 68.6761 58.6776 67.9203 58.6776 67.0721C58.6776 66.2239 58.8625 65.4682 59.2322 64.8048C59.6019 64.1415 60.113 63.6304 60.7655 63.2716C61.4179 62.9018 62.1465 62.717 62.9512 62.717C63.6471 62.717 64.2724 62.8638 64.827 63.1574C65.3924 63.4401 65.8546 63.8588 66.2134 64.4134V62.7822H67.3716ZM63.049 70.4159C63.6471 70.4159 64.1854 70.28 64.6639 70.0082C65.1532 69.7254 65.5338 69.3285 65.8057 68.8174C66.0884 68.3063 66.2298 67.7246 66.2298 67.0721C66.2298 66.4197 66.0884 65.8379 65.8057 65.3268C65.5338 64.8157 65.1532 64.4242 64.6639 64.1524C64.1854 63.8696 63.6471 63.7283 63.049 63.7283C62.4401 63.7283 61.8909 63.8696 61.4016 64.1524C60.9231 64.4242 60.5425 64.8157 60.2598 65.3268C59.9879 65.8379 59.852 66.4197 59.852 67.0721C59.852 67.7246 59.9879 68.3063 60.2598 68.8174C60.5425 69.3285 60.9231 69.7254 61.4016 70.0082C61.8909 70.28 62.4401 70.4159 63.049 70.4159ZM76.6973 63.8098H71.7876V71.362H70.6295V62.7822H76.6973V63.8098ZM85.7696 62.7822V71.362H84.6605V69.6656C84.3125 70.242 83.8503 70.6824 83.274 70.9868C82.7085 71.2913 82.067 71.4436 81.3493 71.4436C80.5446 71.4436 79.816 71.2587 79.1635 70.889C78.5111 70.5192 78 70.0027 77.6303 69.3394C77.2605 68.6761 77.0757 67.9203 77.0757 67.0721C77.0757 66.2239 77.2605 65.4682 77.6303 64.8048C78 64.1415 78.5111 63.6304 79.1635 63.2716C79.816 62.9018 80.5446 62.717 81.3493 62.717C82.0452 62.717 82.6705 62.8638 83.2251 63.1574C83.7905 63.4401 84.2527 63.8588 84.6115 64.4134V62.7822H85.7696ZM81.4471 70.4159C82.0452 70.4159 82.5835 70.28 83.062 70.0082C83.5513 69.7254 83.9319 69.3285 84.2037 68.8174C84.4865 68.3063 84.6278 67.7246 84.6278 67.0721C84.6278 66.4197 84.4865 65.8379 84.2037 65.3268C83.9319 64.8157 83.5513 64.4242 83.062 64.1524C82.5835 63.8696 82.0452 63.7283 81.4471 63.7283C80.8382 63.7283 80.289 63.8696 79.7997 64.1524C79.3212 64.4242 78.9406 64.8157 78.6579 65.3268C78.386 65.8379 78.2501 66.4197 78.2501 67.0721C78.2501 67.7246 78.386 68.3063 78.6579 68.8174C78.9406 69.3285 79.3212 69.7254 79.7997 70.0082C80.289 70.28 80.8382 70.4159 81.4471 70.4159ZM93.0281 66.8927C93.637 67.034 94.1046 67.2787 94.4308 67.6267C94.7679 67.9747 94.9365 68.3988 94.9365 68.899C94.9365 69.3992 94.7625 69.845 94.4145 70.2365C94.0774 70.628 93.6153 70.9325 93.0281 71.15C92.4409 71.3566 91.7938 71.4599 91.087 71.4599C90.4672 71.4599 89.8582 71.3729 89.2601 71.1989C88.6621 71.014 88.1401 70.7476 87.6943 70.3996L88.0857 69.5351C88.4772 69.8287 88.9339 70.0571 89.4559 70.2202C89.9778 70.3833 90.5052 70.4649 91.0381 70.4649C91.8319 70.4649 92.4789 70.3181 92.9791 70.0245C93.4902 69.72 93.7458 69.3122 93.7458 68.8011C93.7458 68.3444 93.5392 67.991 93.1259 67.7409C92.7127 67.4799 92.1473 67.3494 91.4296 67.3494H89.9615V66.5012H91.3643C92.0059 66.5012 92.5224 66.3816 92.9139 66.1424C93.3054 65.8923 93.5011 65.5606 93.5011 65.1474C93.5011 64.6906 93.2782 64.3318 92.8323 64.0708C92.3974 63.8098 91.8265 63.6793 91.1196 63.6793C90.1953 63.6793 89.2819 63.9131 88.3793 64.3807L88.0531 63.4836C89.0753 62.9508 90.1355 62.6844 91.2338 62.6844C91.8863 62.6844 92.4735 62.7822 92.9954 62.978C93.5283 63.1628 93.9415 63.4292 94.2351 63.7772C94.5396 64.1252 94.6918 64.5275 94.6918 64.9843C94.6918 65.4192 94.5396 65.8053 94.2351 66.1424C93.9415 66.4795 93.5392 66.7296 93.0281 66.8927ZM105.118 62.7822V71.362H104.009V69.7961C103.704 70.3181 103.285 70.7259 102.753 71.0195C102.22 71.3022 101.611 71.4436 100.926 71.4436C99.7948 71.4436 98.9031 71.1336 98.2506 70.5138C97.6091 69.8831 97.2883 68.9642 97.2883 67.7572V62.7822H98.4464V67.643C98.4464 68.5456 98.6693 69.2306 99.1151 69.6982C99.561 70.1658 100.203 70.3996 101.04 70.3996C101.942 70.3996 102.655 70.1278 103.177 69.5841C103.699 69.0295 103.96 68.2628 103.96 67.2842V62.7822H105.118ZM108.413 62.7822H109.571V66.5828H114.97V62.7822H116.129V71.362H114.97V67.5778H109.571V71.362H108.413V62.7822ZM134.39 62.717C135.466 62.717 136.309 63.0269 136.918 63.6467C137.538 64.2666 137.848 65.18 137.848 66.387V71.362H136.689V66.5012C136.689 65.6095 136.472 64.9299 136.037 64.4623C135.613 63.9947 135.009 63.7609 134.226 63.7609C133.335 63.7609 132.633 64.0382 132.122 64.5928C131.611 65.1365 131.356 65.8923 131.356 66.8601V71.362H130.197V66.5012C130.197 65.6095 129.98 64.9299 129.545 64.4623C129.121 63.9947 128.512 63.7609 127.718 63.7609C126.837 63.7609 126.136 64.0382 125.614 64.5928C125.103 65.1365 124.847 65.8923 124.847 66.8601V71.362H123.689V62.7822H124.798V64.3481C125.103 63.8261 125.527 63.4238 126.071 63.1411C126.614 62.8583 127.24 62.717 127.947 62.717C128.664 62.717 129.284 62.8692 129.806 63.1737C130.339 63.4782 130.736 63.9295 130.997 64.5275C131.312 63.9621 131.763 63.5217 132.351 63.2063C132.949 62.8801 133.628 62.717 134.39 62.717ZM144.514 70.4159C145.047 70.4159 145.536 70.3235 145.982 70.1386C146.439 69.9429 146.825 69.6602 147.14 69.2905L147.793 70.0408C147.412 70.4975 146.939 70.8455 146.374 71.0847C145.808 71.3239 145.183 71.4436 144.498 71.4436C143.617 71.4436 142.834 71.2587 142.149 70.889C141.464 70.5084 140.931 69.9864 140.55 69.3231C140.17 68.6597 139.98 67.9094 139.98 67.0721C139.98 66.2348 140.159 65.4845 140.518 64.8211C140.888 64.1578 141.393 63.6413 142.035 63.2716C142.676 62.9018 143.405 62.717 144.221 62.717C144.982 62.717 145.667 62.891 146.276 63.2389C146.896 63.5869 147.385 64.0708 147.744 64.6906C148.114 65.3105 148.309 66.0173 148.331 66.8111L141.284 68.1813C141.502 68.8772 141.893 69.4264 142.459 69.8287C143.035 70.2202 143.72 70.4159 144.514 70.4159ZM144.221 63.712C143.622 63.712 143.084 63.8533 142.606 64.1361C142.138 64.4079 141.768 64.794 141.497 65.2942C141.236 65.7835 141.105 66.349 141.105 66.9906C141.105 67.1537 141.111 67.2733 141.121 67.3494L147.173 66.175C147.042 65.4573 146.711 64.8701 146.178 64.4134C145.645 63.9458 144.993 63.712 144.221 63.712ZM155.848 71.362L153.124 67.7735L150.384 71.362H149.079L152.472 66.9579L149.242 62.7822H150.547L153.124 66.1424L155.702 62.7822H156.974L153.744 66.9579L157.17 71.362H155.848ZM159.068 62.7822H160.226V66.5828H165.625V62.7822H166.783V71.362H165.625V67.5778H160.226V71.362H159.068V62.7822ZM170.075 62.7822H171.233V71.362H170.075V62.7822ZM170.662 60.9064C170.423 60.9064 170.221 60.8249 170.058 60.6617C169.895 60.4986 169.814 60.3029 169.814 60.0745C169.814 59.857 169.895 59.6667 170.058 59.5036C170.221 59.3405 170.423 59.259 170.662 59.259C170.901 59.259 171.102 59.3405 171.265 59.5036C171.429 59.6559 171.51 59.8407 171.51 60.0582C171.51 60.2975 171.429 60.4986 171.265 60.6617C171.102 60.8249 170.901 60.9064 170.662 60.9064ZM177.65 67.5451H175.693V71.362H174.535V62.7822H175.693V66.5501H177.667L180.684 62.7822H181.94L178.564 66.9416L182.185 71.362H180.815L177.65 67.5451ZM191.406 62.7822V71.362H190.296V69.7961C189.992 70.3181 189.573 70.7259 189.04 71.0195C188.508 71.3022 187.899 71.4436 187.213 71.4436C186.083 71.4436 185.191 71.1336 184.538 70.5138C183.897 69.8831 183.576 68.9642 183.576 67.7572V62.7822H184.734V67.643C184.734 68.5456 184.957 69.2306 185.403 69.6982C185.849 70.1658 186.49 70.3996 187.328 70.3996C188.23 70.3996 188.942 70.1278 189.464 69.5841C189.986 69.0295 190.247 68.2628 190.247 67.2842V62.7822H191.406Z" fill="white"/>
</g>
<defs>
<clipPath id="clip0_170_1126">
<rect width="193" height="72" fill="white"/>
</clipPath>
</defs>
</svg>
