<svg width="30" height="32" viewBox="0 0 30 32" fill="none" xmlns="http://www.w3.org/2000/svg">
<path fill-rule="evenodd" clip-rule="evenodd" d="M3.52133 0.000117609H0.417733L0 0.40128V31.6247L0.390905 32H11.8695C16.7768 32 21.4224 30.7965 25.0507 27.4909C28.4784 24.3679 30 20.4507 30 15.9515C30 11.468 28.5172 7.53695 25.0759 4.43643C21.439 1.15962 16.7565 0 11.8695 0H8.29758L7.87985 0.401163L7.87826 25.8956H8.25434L22.6706 16.2595V15.7404L14.1005 10.012L13.7886 10.1582V14.1978L13.955 14.5248L15.9582 15.8636V16.1363L12.111 18.7078L11.8192 18.5615V3.54743L11.9806 3.3943L12.0941 3.3956C15.8088 3.43782 19.3756 4.3474 22.1216 6.86058C24.8025 9.31436 25.9093 12.4426 25.9093 15.9515C25.9093 19.4775 24.7647 22.5898 22.0964 25.0667C19.287 27.6746 15.6466 28.6061 11.8192 28.6061H4.09844L3.93919 28.4533V28.3452V0.40128L3.52133 0.000117609Z" fill="#04C2C2"/>
</svg>
