<svg width="231" height="232" viewBox="0 0 231 232" fill="none" xmlns="http://www.w3.org/2000/svg">
<g clip-path="url(#clip0_52_1498)">
<path d="M118.819 231.99C180.482 231.99 230.47 181.834 230.47 119.964C230.47 58.0932 180.482 7.93732 118.819 7.93732C57.156 7.93732 7.16815 58.0932 7.16815 119.964C7.16815 181.834 57.156 231.99 118.819 231.99Z" fill="#04C2C2" fill-opacity="0.1"/>
<path d="M201.382 35.3354L226.163 35.6136V106.006L221.411 121.295L213.777 125.457L203.144 130.474L188.174 134.785L201.382 35.3354Z" fill="#04ADAD"/>
<path d="M35.118 36.8454H60.068L81.5131 149.339H56.5334L35.118 36.8454Z" fill="#05E6E6"/>
<path d="M162.769 35.8918C162.472 52.9585 148.601 66.6973 131.522 66.6973C114.443 66.6973 100.572 52.9486 100.275 35.8918H56.5334L75.7805 151.584L185.283 135.282C185.283 135.282 205.342 136.236 206.599 89.8536L207.203 35.8818H162.769V35.8918Z" fill="#04C2C2"/>
<path d="M53.3157 158.687L31.2171 37.5607C30.9894 36.3189 30.7617 35.0871 30.5439 33.8453C29.9003 30.2194 29.0984 25.4213 28.5538 20.5635C27.237 8.65257 17.5343 7.98698 16.7026 7.94725H3.96031C1.77224 7.94725 0 6.16905 0 3.97362C0 1.7782 1.77224 0 3.96031 0H16.8808C22.9104 0.168879 34.7517 4.50013 36.4348 19.6794C36.9497 24.3186 37.7318 28.9379 38.3457 32.4546C38.5635 33.6864 38.7813 34.9083 39.009 36.1302L59.7413 149.786C81.2259 146.835 188.115 132.044 205.243 127.355C221.272 122.974 222.163 109.285 222.203 108.51V39.5872H163.878C161.69 39.5872 159.917 37.809 159.917 35.6136C159.917 33.4182 161.69 31.64 163.878 31.64H230.124V108.689C229.945 115.692 224.946 130.206 207.322 135.024C187.857 140.348 62.3848 157.455 57.0582 158.18L53.3157 158.687Z" fill="black"/>
<path d="M100.265 39.5872H34.8903C32.7022 39.5872 30.93 37.809 30.93 35.6136C30.93 33.4181 32.7022 31.64 34.8903 31.64H100.265C102.453 31.64 104.225 33.4181 104.225 35.6136C104.225 37.809 102.453 39.5872 100.265 39.5872Z" fill="black"/>
<path d="M56.0185 191.459C48.5138 191.459 34.3458 187.585 31.8607 172.614C31.0686 167.826 32.1181 163.405 34.9002 159.849C41.3258 151.624 54.7215 150.382 56.2364 150.273C58.4244 150.104 60.3155 151.743 60.4838 153.938C60.6521 156.124 59.0185 158.031 56.8304 158.2C53.682 158.448 44.7515 160.117 41.1278 164.766C39.7219 166.574 39.2466 168.71 39.6823 171.313C41.7218 183.611 55.8502 183.512 56.4542 183.512H226.173C228.361 183.512 230.134 185.29 230.134 187.485C230.134 189.681 228.361 191.459 226.173 191.459H56.5334C56.3651 191.459 56.1869 191.459 56.0185 191.459Z" fill="black"/>
<path d="M132.066 62.8031C147.207 62.8031 159.482 50.4877 159.482 35.2957C159.482 20.1038 147.207 7.78833 132.066 7.78833C116.925 7.78833 104.651 20.1038 104.651 35.2957C104.651 50.4877 116.925 62.8031 132.066 62.8031Z" fill="#93FFFF"/>
<path d="M80.1171 223.526C86.5256 223.526 91.7208 218.314 91.7208 211.884C91.7208 205.453 86.5256 200.241 80.1171 200.241C73.7085 200.241 68.5134 205.453 68.5134 211.884C68.5134 218.314 73.7085 223.526 80.1171 223.526Z" fill="#93FFFF"/>
<path d="M192.243 223.526C198.652 223.526 203.847 218.314 203.847 211.884C203.847 205.453 198.652 200.241 192.243 200.241C185.835 200.241 180.64 205.453 180.64 211.884C180.64 218.314 185.835 223.526 192.243 223.526Z" fill="#93FFFF"/>
<path d="M143.561 52.273C142.551 52.273 141.532 51.8856 140.759 51.1107L116.017 26.2855C114.473 24.7358 114.473 22.2225 116.017 20.6628C117.562 19.1131 120.067 19.1131 121.621 20.6628L146.363 45.488C147.908 47.0378 147.908 49.5511 146.363 51.1107C145.581 51.8856 144.571 52.273 143.561 52.273Z" fill="black"/>
<path d="M118.819 52.273C117.809 52.273 116.79 51.8856 116.017 51.1107C114.473 49.561 114.473 47.0378 116.017 45.488L140.759 20.6628C142.304 19.1131 144.809 19.1131 146.363 20.6628C147.908 22.2125 147.908 24.7358 146.363 26.2855L121.621 51.1107C120.849 51.8856 119.829 52.273 118.819 52.273Z" fill="black"/>
<path d="M80.117 230.262C70.0182 230.262 61.8006 222.016 61.8006 211.884C61.8006 201.751 70.0182 193.505 80.117 193.505C90.2158 193.505 98.4335 201.751 98.4335 211.884C98.4335 222.016 90.2158 230.262 80.117 230.262ZM80.117 201.453C74.3845 201.453 69.7212 206.132 69.7212 211.884C69.7212 217.635 74.3845 222.314 80.117 222.314C85.8496 222.314 90.5128 217.635 90.5128 211.884C90.5128 206.132 85.8496 201.453 80.117 201.453Z" fill="black"/>
<path d="M131.185 69.4788C112.275 69.4788 96.8989 54.0413 96.8989 35.0772C96.8989 16.1131 112.285 0.675537 131.185 0.675537C150.096 0.675537 165.472 16.1131 165.472 35.0772C165.472 54.0413 150.096 69.4788 131.185 69.4788ZM131.185 8.62278C116.651 8.62278 104.819 20.494 104.819 35.0772C104.819 49.6604 116.651 61.5316 131.185 61.5316C145.72 61.5316 157.551 49.6604 157.551 35.0772C157.551 20.494 145.729 8.62278 131.185 8.62278Z" fill="black"/>
<path d="M192.243 230.262C182.145 230.262 173.927 222.016 173.927 211.884C173.927 201.751 182.145 193.505 192.243 193.505C202.342 193.505 210.56 201.751 210.56 211.884C210.56 222.016 202.342 230.262 192.243 230.262ZM192.243 201.453C186.511 201.453 181.847 206.132 181.847 211.884C181.847 217.635 186.511 222.314 192.243 222.314C197.976 222.314 202.639 217.635 202.639 211.884C202.639 206.132 197.976 201.453 192.243 201.453Z" fill="black"/>
</g>
<defs>
<clipPath id="clip0_52_1498">
<rect width="230.47" height="232" fill="white"/>
</clipPath>
</defs>
</svg>
