<svg width="24" height="24" viewBox="0 0 24 24" fill="none" xmlns="http://www.w3.org/2000/svg">
<path d="M2 15V13H7V12H5C4.71667 12 4.47917 11.9042 4.2875 11.7125C4.09583 11.5208 4 11.2833 4 11C4 10.7167 4.09583 10.4792 4.2875 10.2875C4.47917 10.0958 4.71667 10 5 10H7C7.55 10 8.02083 10.1958 8.4125 10.5875C8.80417 10.9792 9 11.45 9 12V13H11V6.1C11 4.95 11.4 3.97917 12.2 3.1875C13 2.39583 13.975 2 15.125 2C15.8917 2 16.6 2.2 17.25 2.6C17.9 3 18.4 3.55 18.75 4.25L19.9 6.55L18.1 7.45L16.95 5.15C16.7667 4.8 16.5083 4.52083 16.175 4.3125C15.8417 4.10417 15.4833 4 15.1 4C14.5167 4 14.0208 4.20417 13.6125 4.6125C13.2042 5.02083 13 5.51667 13 6.1V13H15V12C15 11.45 15.1958 10.9792 15.5875 10.5875C15.9792 10.1958 16.45 10 17 10H19C19.2833 10 19.5208 10.0958 19.7125 10.2875C19.9042 10.4792 20 10.7167 20 11C20 11.2833 19.9042 11.5208 19.7125 11.7125C19.5208 11.9042 19.2833 12 19 12H17V13H22V15H2ZM6 21C5.45 21 4.97917 20.8042 4.5875 20.4125C4.19583 20.0208 4 19.55 4 19V15H6V19H18V15H20V19C20 19.55 19.8042 20.0208 19.4125 20.4125C19.0208 20.8042 18.55 21 18 21H6Z" fill="#262626"/>
</svg>
