<svg width="24" height="24" viewBox="0 0 24 24" fill="none" xmlns="http://www.w3.org/2000/svg">
<path d="M6.9999 20C6.2499 20 5.59574 19.7625 5.0374 19.2875C4.47907 18.8125 4.1499 18.2 4.0499 17.45C3.41657 17.1167 2.91657 16.6417 2.5499 16.025C2.18324 15.4083 1.9999 14.7333 1.9999 14C1.9999 13.1167 2.25407 12.3292 2.7624 11.6375C3.27074 10.9458 3.9499 10.4667 4.7999 10.2L2.9999 8.4L2.6999 8.7C2.51657 8.88333 2.28324 8.975 1.9999 8.975C1.71657 8.975 1.48324 8.88333 1.2999 8.7C1.11657 8.51667 1.0249 8.28333 1.0249 8C1.0249 7.71667 1.11657 7.48333 1.2999 7.3L3.2999 5.3C3.48324 5.11667 3.71657 5.025 3.9999 5.025C4.28324 5.025 4.51657 5.11667 4.6999 5.3C4.88324 5.48333 4.9749 5.71667 4.9749 6C4.9749 6.28333 4.88324 6.51667 4.6999 6.7L4.3999 7L5.7999 8.4L6.5999 6.05C6.7999 5.43333 7.1624 4.9375 7.6874 4.5625C8.2124 4.1875 8.7999 4 9.4499 4H14.5499C15.1999 4 15.7874 4.1875 16.3124 4.5625C16.8374 4.9375 17.1999 5.43333 17.3999 6.05L18.7499 10.1C19.6999 10.2833 20.4791 10.7417 21.0874 11.475C21.6957 12.2083 21.9999 13.05 21.9999 14C21.9999 14.7333 21.8166 15.4083 21.4499 16.025C21.0832 16.6417 20.5832 17.1167 19.9499 17.45C19.8499 18.2 19.5207 18.8125 18.9624 19.2875C18.4041 19.7625 17.7499 20 16.9999 20C16.3666 20 15.7957 19.8167 15.2874 19.45C14.7791 19.0833 14.4166 18.6 14.1999 18H9.7999C9.58324 18.6 9.22074 19.0833 8.7124 19.45C8.20407 19.8167 7.63324 20 6.9999 20ZM7.3999 10H10.9999V6H9.4499C9.23324 6 9.04157 6.0625 8.8749 6.1875C8.70824 6.3125 8.58324 6.48333 8.4999 6.7L7.3999 10ZM12.9999 10H16.5999L15.4999 6.7C15.4166 6.48333 15.2916 6.3125 15.1249 6.1875C14.9582 6.0625 14.7666 6 14.5499 6H12.9999V10ZM9.7999 16H14.1999C14.4166 15.4 14.7791 14.9167 15.2874 14.55C15.7957 14.1833 16.3666 14 16.9999 14C17.4999 14 17.9666 14.1167 18.3999 14.35C18.8332 14.5833 19.1999 14.9 19.4999 15.3C19.6499 15.1167 19.7707 14.9125 19.8624 14.6875C19.9541 14.4625 19.9999 14.2333 19.9999 14C19.9999 13.45 19.8041 12.9792 19.4124 12.5875C19.0207 12.1958 18.5499 12 17.9999 12H5.9999C5.4499 12 4.97907 12.1958 4.5874 12.5875C4.19574 12.9792 3.9999 13.45 3.9999 14C3.9999 14.2333 4.04574 14.4625 4.1374 14.6875C4.22907 14.9125 4.3499 15.1167 4.4999 15.3C4.7999 14.9 5.16657 14.5833 5.5999 14.35C6.03324 14.1167 6.4999 14 6.9999 14C7.63324 14 8.20407 14.1833 8.7124 14.55C9.22074 14.9167 9.58324 15.4 9.7999 16ZM6.9999 18C7.28324 18 7.52074 17.9042 7.7124 17.7125C7.90407 17.5208 7.9999 17.2833 7.9999 17C7.9999 16.7167 7.90407 16.4792 7.7124 16.2875C7.52074 16.0958 7.28324 16 6.9999 16C6.71657 16 6.47907 16.0958 6.2874 16.2875C6.09574 16.4792 5.9999 16.7167 5.9999 17C5.9999 17.2833 6.09574 17.5208 6.2874 17.7125C6.47907 17.9042 6.71657 18 6.9999 18ZM16.9999 18C17.2832 18 17.5207 17.9042 17.7124 17.7125C17.9041 17.5208 17.9999 17.2833 17.9999 17C17.9999 16.7167 17.9041 16.4792 17.7124 16.2875C17.5207 16.0958 17.2832 16 16.9999 16C16.7166 16 16.4791 16.0958 16.2874 16.2875C16.0957 16.4792 15.9999 16.7167 15.9999 17C15.9999 17.2833 16.0957 17.5208 16.2874 17.7125C16.4791 17.9042 16.7166 18 16.9999 18Z" fill="#262626"/>
</svg>
